<svg width="19" height="22" viewBox="0 0 19 22" fill="none" xmlns="http://www.w3.org/2000/svg">
<path d="M16.7141 0C17.9478 0 18.9414 0.997541 19 2.17274V21.0563L16.6522 19.0619L15.3638 17.8899L13.955 16.6628L14.5413 18.596H2.22736C0.996883 18.596 0 17.6636 0 16.4232V2.17669C0 1.00149 0.997541 0.00394805 2.23131 0.00394805H16.7075L16.7141 0ZM11.3467 4.98639H11.3191L11.1407 5.16142C12.9608 5.68914 13.8412 6.51165 13.8412 6.51165C12.6693 5.92537 11.6099 5.63058 10.5545 5.51082C9.7938 5.39435 9.02919 5.45621 8.385 5.51082H8.20668C7.79543 5.51082 6.9183 5.68914 5.74244 6.1583C5.33448 6.33662 5.09825 6.45309 5.09825 6.45309C5.09825 6.45309 5.97538 5.57202 7.91519 5.10286L7.79543 4.98639C7.79543 4.98639 6.32873 4.92783 4.74556 6.1004C4.74556 6.1004 3.16239 8.85943 3.16239 12.2587C3.16239 12.2587 4.03952 13.784 6.44585 13.8419C6.44585 13.8419 6.79855 13.376 7.1519 12.9647C5.80166 12.5535 5.27394 11.731 5.27394 11.731C5.27394 11.731 5.3937 11.7895 5.56873 11.906H5.62005C5.64769 11.906 5.66151 11.9198 5.67467 11.9336V11.9402C5.68849 11.954 5.7023 11.9639 5.72599 11.9639C6.01749 12.0837 6.30504 12.2001 6.54192 12.3166C6.95318 12.4916 7.47761 12.6693 8.1218 12.7864C8.93773 12.9062 9.87276 12.9615 10.9387 12.7864C11.4632 12.6667 11.9909 12.5535 12.5186 12.3166C12.8581 12.1416 13.2793 11.9672 13.7419 11.6691C13.7419 11.6691 13.2174 12.4916 11.8086 12.9029C12.0968 13.3109 12.5041 13.78 12.5041 13.78C14.9131 13.7254 15.8488 12.2001 15.9001 12.2653C15.9001 8.8693 14.3064 6.10698 14.3064 6.10698C12.8739 5.041 11.5303 5.00021 11.2941 5.00021L11.3421 4.9831L11.3467 4.98639ZM11.4941 8.85943C12.1113 8.85943 12.6081 9.38386 12.6081 10.0281C12.6081 10.6795 12.108 11.2033 11.4941 11.2033C10.8769 11.2033 10.3801 10.6788 10.3801 10.0346C10.3801 9.3832 10.8802 8.85943 11.4941 8.85943ZM7.50854 8.85943C8.1218 8.85943 8.61926 9.38386 8.61926 10.0281C8.61926 10.6795 8.11917 11.2033 7.50525 11.2033C6.88803 11.2033 6.38795 10.6788 6.38795 10.0346C6.38795 9.3832 6.88803 8.85943 7.50525 8.85943H7.50854Z" fill="black"/>
</svg>
