<svg width="current" height="current" viewBox="0 0 20 19" fill="none" xmlns="http://www.w3.org/2000/svg">
<path d="M4.32221 9.04626C4.32219 8.94016 4.34313 8.83509 4.38384 8.7371C4.42455 8.63912 4.48421 8.55014 4.55941 8.47528C4.6346 8.40042 4.72385 8.34115 4.82202 8.30089C4.92019 8.26062 5.02535 8.24015 5.13145 8.24064L6.4731 8.24504C6.68702 8.24504 6.89218 8.33002 7.04345 8.48128C7.19471 8.63255 7.27969 8.83771 7.27969 9.05163V14.1249C7.43083 14.0801 7.62466 14.0324 7.837 13.9825C7.98444 13.9478 8.11583 13.8644 8.20989 13.7456C8.30394 13.6269 8.35513 13.4799 8.35517 13.3284V7.0355C8.35515 6.82156 8.44012 6.61637 8.59139 6.46507C8.74265 6.31377 8.94782 6.22875 9.16176 6.22872H10.5061C10.7201 6.22877 10.9252 6.31379 11.0765 6.46509C11.2277 6.61638 11.3127 6.82157 11.3127 7.0355V12.8762C11.3127 12.8762 11.6492 12.74 11.9771 12.6016C12.0989 12.55 12.2028 12.4638 12.2759 12.3536C12.349 12.2434 12.388 12.1142 12.3881 11.9819V5.01867C12.3881 4.91275 12.409 4.80787 12.4495 4.71002C12.49 4.61216 12.5494 4.52324 12.6243 4.44834C12.6992 4.37344 12.7881 4.31403 12.886 4.27349C12.9838 4.23295 13.0887 4.21208 13.1946 4.21207H14.539C14.7529 4.21207 14.9581 4.29705 15.1093 4.44831C15.2606 4.59958 15.3456 4.80474 15.3456 5.01867V10.7526C16.5111 9.90791 17.6923 8.89196 18.6296 7.67039C18.7656 7.49307 18.8556 7.28484 18.8916 7.06429C18.9275 6.84374 18.9083 6.61771 18.8357 6.40638C18.2015 4.55803 17.0118 2.95069 15.4294 1.80414C13.847 0.657583 11.949 0.0277868 9.99508 0.000861254C4.72612 -0.0699187 0.371598 4.23116 0.372116 9.50077C0.366942 11.1682 0.80215 12.8075 1.63373 14.2529C1.74841 14.4505 1.91713 14.6114 2.12006 14.7165C2.32299 14.8217 2.55171 14.8667 2.77934 14.8463C3.03367 14.8239 3.35031 14.7923 3.72672 14.7481C3.89056 14.7295 4.04182 14.6512 4.15169 14.5283C4.26156 14.4053 4.32236 14.2462 4.32253 14.0813V9.04626" fill="current"/>
<path d="M4.29303 17.1826C5.71005 18.2134 7.38461 18.8322 9.13146 18.9704C10.8783 19.1086 12.6293 18.7609 14.1908 17.9657C15.7523 17.1705 17.0634 15.9589 17.979 14.4648C18.8947 12.9708 19.3791 11.2526 19.3789 9.50025C19.3789 9.2815 19.3687 9.06522 19.3541 8.8501C15.8835 14.026 9.47556 16.446 4.29297 17.1828" fill="current"/>
</svg>
