<svg width="71" height="67" viewBox="0 0 71 67" fill="none" xmlns="http://www.w3.org/2000/svg">
<path fill-rule="evenodd" clip-rule="evenodd" d="M16.5507 1.21041L16.5507 1.21043C20.7688 5.0078 25.701 9.44813 30.259 17.1236C33.8117 16.8956 36.306 16.8956 39.8519 17.1236C44.4099 9.44813 49.3421 5.0078 53.5602 1.21043L53.5604 1.21025L53.5629 1.20796C54.0173 0.798936 54.4633 0.397361 54.8997 0C58.6328 8.78641 61.1918 17.7668 61.2258 27.1691L70.1143 44.8032C57.0198 50.1254 45.2932 57.275 35.0571 66.4085C24.8211 57.275 13.0945 50.1254 0 44.8032L8.8885 27.1691C8.92253 17.7668 11.4781 8.78641 15.2112 0C15.648 0.397781 16.0946 0.799786 16.5494 1.20926L16.5506 1.21033L16.5507 1.21041ZM17.1741 27.6694C22.5439 28.7243 27.6926 34.2099 29.765 37.2964C19.2686 38.8768 18.6569 35.0607 18.0263 31.127C17.8355 29.9365 17.6429 28.7352 17.1741 27.6694ZM40.3514 37.2964C42.4237 34.2099 47.5724 28.7243 52.9422 27.6694C52.4723 28.7358 52.2792 29.9379 52.0878 31.1292C51.456 35.0621 50.8432 38.8765 40.3514 37.2964ZM31.7871 50.0062C32.5494 51.3129 33.4716 52.4393 34.5197 53.4261C34.8225 53.7086 35.2921 53.7086 35.5984 53.4261C36.6465 52.4393 37.5687 51.3163 38.331 50.0062C36.3947 49.4005 33.72 49.4005 31.7871 50.0062Z" fill="black"/>
</svg>
