<svg width="24" height="19" viewBox="0 0 24 19" fill="none" xmlns="http://www.w3.org/2000/svg">
<path d="M23.3721 2.25375C22.5126 2.6346 21.5893 2.89193 20.6186 3.00825C21.6201 2.40896 22.3694 1.46576 22.7267 0.354625C21.7857 0.913543 20.7559 1.30696 19.6819 1.51777C18.9597 0.746662 18.0031 0.235558 16.9607 0.0638109C15.9182 -0.107936 14.8483 0.0692844 13.9168 0.567957C12.9854 1.06663 12.2447 1.85885 11.8097 2.82163C11.3747 3.78441 11.2697 4.86388 11.511 5.89244C9.6044 5.79671 7.73918 5.30114 6.03645 4.4379C4.33373 3.57465 2.83154 2.36302 1.62738 0.881644C1.21564 1.59188 0.978897 2.41535 0.978897 3.29235C0.978438 4.08184 1.17286 4.85924 1.54491 5.55558C1.91695 6.25191 2.45513 6.84565 3.11168 7.2841C2.35026 7.25988 1.60563 7.05413 0.939783 6.684V6.74576C0.939706 7.85306 1.32273 8.92628 2.02386 9.78333C2.72499 10.6404 3.70105 11.2284 4.78641 11.4478C4.08006 11.6389 3.33951 11.6671 2.62069 11.5301C2.92691 12.4829 3.52341 13.316 4.32667 13.9129C5.12993 14.5099 6.09975 14.8406 7.10035 14.859C5.40178 16.1924 3.30405 16.9157 1.14462 16.9125C0.7621 16.9126 0.379903 16.8903 0 16.8456C2.19194 18.2549 4.74352 19.0029 7.34945 19C16.1708 19 20.9933 11.6938 20.9933 5.35719C20.9933 5.15132 20.9881 4.9434 20.9789 4.73753C21.9169 4.05917 22.7266 3.21916 23.37 2.25683L23.3721 2.25375Z" fill="black"/>
</svg>
