<svg viewBox="0 0 55 54" fill="none" xmlns="http://www.w3.org/2000/svg">
<path d="M31.9448 26.3628C35.1743 16.8044 17.9531 17.7663 15.3535 19.5443C12.7539 21.3222 6.01702 31.8511 9.92794 37.9126C13.8389 43.9741 18.2844 45.1493 27.8968 44.8845C37.5092 44.6198 37.7074 22.7127 45.7577 15.4179C52.1979 9.58212 48.8387 10.7452 46.3542 12.0562C43.6819 13.0149 37.5851 16.4395 34.5764 22.4688C31.5678 28.4982 31.5684 27.5771 31.9448 26.3628Z" fill="#F36800"/>
<path d="M21.6115 28.0913C23.9794 30.7013 29.3612 34.0096 31.9448 26.3628M31.9448 26.3628C35.1743 16.8044 17.9531 17.7663 15.3535 19.5443C12.7539 21.3222 6.01702 31.8511 9.92794 37.9126C13.8389 43.9741 18.2844 45.1493 27.8968 44.8845C37.5092 44.6198 37.7075 22.7127 45.7577 15.4179C52.1979 9.58212 48.8387 10.7452 46.3542 12.0562C43.6819 13.0149 37.5851 16.4395 34.5764 22.4688C31.5678 28.4982 31.5684 27.5771 31.9448 26.3628Z" stroke="black" stroke-width="2"/>
<path d="M25.9193 23.9063C23.0863 14.223 9.52681 24.8829 8.41592 27.8299C7.30503 30.777 7.82041 43.266 14.4997 45.9909C21.1789 48.7158 25.4952 47.1303 33.2197 41.4032C40.9443 35.6761 28.5488 17.612 30.9634 7.02008C32.8951 -1.45347 30.8094 1.42511 29.5251 3.92358C27.885 6.24097 24.8525 12.542 25.8435 19.207C26.8344 25.8721 26.3069 25.117 25.9193 23.9063Z" fill="#F36800"/>
<path d="M18.4431 31.246C21.8795 32.0272 28.1857 31.653 25.9193 23.9063M25.9193 23.9063C23.0863 14.223 9.52681 24.8829 8.41592 27.8299C7.30503 30.777 7.82041 43.266 14.4997 45.9909C21.1789 48.7158 25.4952 47.1303 33.2197 41.4032C40.9443 35.6761 28.5488 17.612 30.9634 7.02008C32.8951 -1.45347 30.8094 1.42511 29.5251 3.92358C27.885 6.24097 24.8525 12.542 25.8435 19.207C26.8344 25.8721 26.3069 25.117 25.9193 23.9063Z" stroke="black" stroke-width="2"/>
<path d="M13.444 22.5315C4.54939 17.7693 2.65694 34.9132 3.98167 37.7705C5.30641 40.6278 14.5795 49.0094 21.2032 46.1521C27.8269 43.2948 29.7194 39.104 31.0441 29.5797C32.3688 20.0553 10.7946 16.2456 4.92791 7.10217C0.234572 -0.212542 0.827518 3.29243 1.71066 5.95925C2.21532 8.75309 4.58722 15.3313 10.0376 19.2935C15.4879 23.2556 14.5795 23.103 13.444 22.5315Z" fill="#F36800"/>
<path d="M13.444 33.0083C16.4089 31.1034 20.5597 26.3412 13.444 22.5315M13.444 22.5315C4.54939 17.7693 2.65694 34.9132 3.98167 37.7705C5.30641 40.6278 14.5795 49.0094 21.2032 46.1521C27.8269 43.2948 29.7194 39.104 31.0441 29.5797C32.3688 20.0553 10.7946 16.2456 4.92791 7.10217C0.234572 -0.212542 0.827519 3.29243 1.71066 5.95925C2.21532 8.75309 4.58722 15.3313 10.0376 19.2935C15.4879 23.2556 14.5795 23.103 13.444 22.5315Z" stroke="black" stroke-width="2"/>
</svg>
