<svg viewBox="0 0 32 48" fill="none" xmlns="http://www.w3.org/2000/svg">
<path d="M13.3415 21.7941C4.44685 17.0319 2.5544 34.1757 3.87913 37.033C5.20387 39.8904 14.477 48.272 21.1007 45.4146C27.7243 42.5573 29.6168 38.3666 30.9416 28.8423C32.2663 19.3179 10.6921 15.5081 4.82537 6.36475C0.132033 -0.949968 0.724979 2.555 1.60812 5.22182C2.11278 8.01567 4.48469 14.5939 9.93502 18.556C15.3853 22.5182 14.477 22.3656 13.3415 21.7941Z" fill="#F36800"/>
<path d="M13.3415 32.2709C16.3064 30.366 20.4572 25.6038 13.3415 21.7941M13.3415 21.7941C4.44685 17.0319 2.5544 34.1757 3.87913 37.033C5.20387 39.8904 14.477 48.272 21.1007 45.4147C27.7243 42.5573 29.6168 38.3666 30.9416 28.8423C32.2663 19.3179 10.6921 15.5081 4.82537 6.36475C0.132033 -0.949969 0.724979 2.555 1.60812 5.22182C2.11278 8.01567 4.48468 14.5939 9.93502 18.556C15.3853 22.5182 14.477 22.3656 13.3415 21.7941Z" stroke="black" stroke-width="2"/>
</svg>
