<svg viewBox="0 0 111 34" fill="none" xmlns="http://www.w3.org/2000/svg">
<path fill-rule="evenodd" clip-rule="evenodd" d="M77.8394 0.205098H68.5501V33.0662H77.843C79.3622 33.0662 80.3931 32.3021 80.9631 31.1387L82.524 28.5631V21.3938L81.4949 20.8166V4.69004C81.4949 2.22341 80.306 0.205098 77.8394 0.205098ZM35.8051 19.5098H37.3207H42.9944V27.5122C42.9944 28.015 43.0689 28.378 43.2231 28.6013C43.3011 28.7134 43.4068 28.8034 43.5299 28.8625C43.653 28.9217 43.7893 28.948 43.9255 28.9388C44.0492 28.949 44.1731 28.9238 44.283 28.8663C44.3929 28.8088 44.4842 28.7213 44.5463 28.614C44.6661 28.3925 44.7278 28.0277 44.7278 27.5159V20.5643C44.7278 19.9708 44.6552 19.5588 44.4918 19.3228C44.3285 19.0869 43.9982 18.8164 43.4791 18.5133L39.8708 16.3861C38.9614 15.8597 38.3153 15.2118 37.916 14.4495C37.5167 13.6871 37.3207 12.6217 37.3207 11.2532V6.5686C37.3207 3.71537 37.7127 1.91486 38.4877 1.14528C39.2621 0.381762 41.0451 0 43.8366 0C46.5882 0 48.356 0.372081 49.1383 1.10172C49.9206 1.83137 50.3126 3.66818 50.3126 6.57223V11.5363H44.7205V5.75728C44.7205 5.25814 44.6461 4.90058 44.5045 4.69004C44.4213 4.58181 44.3122 4.49619 44.1872 4.44102C44.0623 4.38585 43.9255 4.36288 43.7894 4.37422C43.6682 4.36358 43.5463 4.38617 43.437 4.43957C43.3276 4.49298 43.2348 4.57518 43.1687 4.67733C43.0471 4.88606 42.9872 5.24362 42.9872 5.75728V10.8666C42.9872 11.4565 43.0743 11.8812 43.2431 12.1371C43.5177 12.4808 43.8631 12.7612 44.2559 12.9593L47.6881 14.9196C48.6192 15.4604 49.2853 16.1011 49.6973 16.829C50.1094 17.5568 50.3126 18.5823 50.3126 19.8982V20.7404L51.4616 21.3847V28.5541L49.554 31.7013C49.4528 31.8939 49.3217 32.0691 49.1655 32.2204C48.4044 32.9464 46.6148 33.3094 43.7967 33.3094C41.0451 33.3058 39.2779 32.9259 38.495 32.1696C37.7121 31.4133 37.3207 29.6122 37.3207 26.7663V22.9402H35.8051V19.5098ZM0 3.39411L1.79688 0.433792V0.205098H7.26012V13.3241L7.45615 13.2842L9.49261 0.205098H15.023L14.1917 3.99307L15.0865 4.77898L12.3422 17.2428L15.4278 33.0662H9.81569L7.45615 17.1212H7.26012V33.0662H1.79325V15.7327L0 14.7272V3.39411ZM101.119 0.205098H96.0859H96.0823V33.068H100.983L100.861 16.2336H101.123L104.208 33.068H109.199V32.8521L111 29.8772V18.5442L109.199 17.535V0.205098H104.323L104.424 16.5894H104.166L101.119 0.205098ZM94.3144 0.205098H84.4298V18.0614L83.2427 18.7275V33.0662H93.4069V28.7356H90.0491V17.2029H93.4069V12.8722H90.0491V4.49583H93.4069V4.0457L94.3144 3.53749V0.205098ZM16.2028 14.4821L17.2428 15.0648V33.0662H22.8694V21.7046C21.7829 20.9992 20.6281 20.4004 19.4207 19.9182L18.604 19.586L20.4444 15.9342C20.4825 14.2662 20.9417 12.6671 21.5933 11.1461L22.0416 10.0898L22.8694 10.8415V0.205098H16.2028V14.4821ZM27.407 11.9955V4.5648H24.6554V0.205098H36.9449V3.20534L35.3931 4.57569H33.0336V24.1254L34.0155 24.6699V33.0608H27.407V22.5717C28.8379 21.4803 30.4123 20.5871 32.0878 19.9182L32.9046 19.586L31.0641 15.9342C31.026 14.2662 30.5668 12.6762 29.9116 11.1461L29.4633 10.0898L28.6157 10.8612C28.5473 10.9234 28.4791 10.9852 28.411 11.0468C28.0683 11.3572 27.73 11.6636 27.407 11.9955ZM65.8511 11.1612L65.8457 11.1643L65.8511 11.157V11.1612ZM66.8439 10.6034L65.8511 11.1612V26.7663C65.8511 29.6267 65.4663 31.4273 64.6895 32.1823C63.9236 32.9337 62.1612 33.3094 59.4023 33.3094C56.5878 33.3058 54.794 32.9259 54.0208 32.1696C53.2475 31.4133 52.8609 29.6122 52.8609 26.7663V0.205098H58.4875V27.5159C58.4875 28.0277 58.5547 28.3925 58.6963 28.614C58.7704 28.724 58.8726 28.8121 58.9923 28.8693C59.112 28.9264 59.2448 28.9504 59.3769 28.9388C59.5046 28.9527 59.6336 28.9317 59.7503 28.878C59.867 28.8243 59.9669 28.7399 60.0394 28.6339C60.1592 28.4234 60.2209 28.0604 60.2209 27.5159V0.205098H64.9128V0.139757H66.8439V10.6034ZM73.2093 27.0657V6.20559H73.8627V5.56125C73.8627 5.39742 73.9276 5.24027 74.0433 5.12425C74.159 5.00823 74.3159 4.94281 74.4798 4.94233H75.6142C75.778 4.94281 75.935 5.00823 76.0506 5.12425C76.1663 5.24027 76.2313 5.39742 76.2313 5.56125V6.20559H76.8811V27.0657H76.2295V27.7119C76.229 27.8754 76.1638 28.0321 76.0482 28.1477C75.9326 28.2633 75.7759 28.3285 75.6124 28.329H74.478C74.3144 28.3285 74.1578 28.2633 74.0421 28.1477C73.9265 28.0321 73.8613 27.8754 73.8608 27.7119V27.0657H73.2093Z" fill="current"/>
<path fill-rule="evenodd" clip-rule="evenodd" d="M22.5836 11.6782C23.3057 12.3293 24.1509 13.0914 24.9314 14.4059C25.4793 14.3655 26.0293 14.3631 26.5776 14.3986C27.3599 13.0812 28.2071 12.3186 28.9317 11.6664C29.0107 11.5953 29.0882 11.5255 29.164 11.4565C29.8084 12.9666 30.253 14.5094 30.253 16.1266L31.7813 19.1558C29.5742 20.0371 27.5361 21.2935 25.7572 22.8694C23.9762 21.2963 21.937 20.0424 19.7295 19.1631L21.2577 16.1338C21.2577 14.5166 21.7042 12.9738 22.3468 11.4637C22.424 11.5342 22.503 11.6055 22.5836 11.6782ZM22.6825 16.2191C23.6064 16.4006 24.483 17.3426 24.846 17.8726C23.0464 18.1443 22.94 17.489 22.8303 16.8136C22.7971 16.6089 22.7636 16.4023 22.6825 16.2191ZM28.8246 16.2191C27.9007 16.4006 27.0241 17.3426 26.6611 17.8726C28.4607 18.1443 28.5671 17.489 28.6768 16.8136C28.71 16.6089 28.7435 16.4023 28.8246 16.2191ZM25.1891 20.0579C25.3162 20.2753 25.4746 20.4729 25.6592 20.6442H25.6646C25.6893 20.6664 25.7213 20.6787 25.7545 20.6787C25.7876 20.6787 25.8196 20.6664 25.8443 20.6442C26.0278 20.4723 26.1855 20.2749 26.3126 20.0579C25.9455 19.9527 25.5562 19.9527 25.1891 20.0579Z" fill="current"/>
</svg>
