<svg width="24" height="36" viewBox="0 0 24 36" fill="none" xmlns="http://www.w3.org/2000/svg">
<mask id="path-1-outside-1_1223_55" maskUnits="userSpaceOnUse" x="0" y="0" width="24" height="36" fill="black">
<rect fill="white" width="24" height="36"/>
<path fill-rule="evenodd" clip-rule="evenodd" d="M19.1431 16.4303C20.9104 18.2339 22 20.704 22 23.4286C22 28.9514 17.5228 33.4286 12 33.4286C6.47715 33.4286 2 28.9514 2 23.4286C2 20.7037 3.08985 18.2334 4.85742 16.4298V9.14286C4.85742 5.20429 8.06171 2 12.0003 2C15.9389 2 19.1431 5.20429 19.1431 9.14286V16.4303ZM7.71456 14.3908V9.85714V9.14286C7.71456 6.78 9.63742 4.85714 12.0003 4.85714C14.3631 4.85714 16.286 6.78 16.286 9.14286V14.3911C14.987 13.7739 13.5338 13.4286 12 13.4286C10.4664 13.4286 9.01343 13.7738 7.71456 14.3908ZM13.4286 26.2857V24.4614C14.2786 23.9657 14.8571 23.0543 14.8571 22C14.8571 21.2423 14.5561 20.5155 14.0203 19.9797C13.4845 19.4439 12.7578 19.1429 12 19.1429C11.2422 19.1429 10.5155 19.4439 9.9797 19.9797C9.44388 20.5155 9.14286 21.2423 9.14286 22C9.14286 23.0557 9.72143 23.9672 10.5714 24.4614V26.2857C10.5714 27.0747 11.211 27.7143 12 27.7143C12.789 27.7143 13.4286 27.0747 13.4286 26.2857Z"/>
</mask>
<path fill-rule="evenodd" clip-rule="evenodd" d="M19.1431 16.4303C20.9104 18.2339 22 20.704 22 23.4286C22 28.9514 17.5228 33.4286 12 33.4286C6.47715 33.4286 2 28.9514 2 23.4286C2 20.7037 3.08985 18.2334 4.85742 16.4298V9.14286C4.85742 5.20429 8.06171 2 12.0003 2C15.9389 2 19.1431 5.20429 19.1431 9.14286V16.4303ZM7.71456 14.3908V9.85714V9.14286C7.71456 6.78 9.63742 4.85714 12.0003 4.85714C14.3631 4.85714 16.286 6.78 16.286 9.14286V14.3911C14.987 13.7739 13.5338 13.4286 12 13.4286C10.4664 13.4286 9.01343 13.7738 7.71456 14.3908ZM13.4286 26.2857V24.4614C14.2786 23.9657 14.8571 23.0543 14.8571 22C14.8571 21.2423 14.5561 20.5155 14.0203 19.9797C13.4845 19.4439 12.7578 19.1429 12 19.1429C11.2422 19.1429 10.5155 19.4439 9.9797 19.9797C9.44388 20.5155 9.14286 21.2423 9.14286 22C9.14286 23.0557 9.72143 23.9672 10.5714 24.4614V26.2857C10.5714 27.0747 11.211 27.7143 12 27.7143C12.789 27.7143 13.4286 27.0747 13.4286 26.2857Z" fill="#3993E7"/>
<path d="M13.4286 23.8571H10.5714V25.8571H13.4286V23.8571ZM19.1431 16.4303H17.1431V17.2469L17.7146 17.8301L19.1431 16.4303ZM4.85742 16.4298L6.28585 17.8296L6.85742 17.2464V16.4298H4.85742ZM7.71456 14.3908H5.71456V17.555L8.57269 16.1973L7.71456 14.3908ZM16.286 14.3911L15.4278 16.1975L18.286 17.5555V14.3911H16.286ZM13.4286 24.4614L12.421 22.7338L11.4286 23.3126V24.4614H13.4286ZM10.5714 24.4614H12.5714V23.3109L11.5768 22.7325L10.5714 24.4614ZM24 23.4286C24 20.1598 22.6904 17.1929 20.5717 15.0306L17.7146 17.8301C19.1304 19.275 20 21.2482 20 23.4286H24ZM12 35.4286C18.6274 35.4286 24 30.056 24 23.4286H20C20 27.8469 16.4183 31.4286 12 31.4286V35.4286ZM0 23.4286C0 30.056 5.37258 35.4286 12 35.4286V31.4286C7.58172 31.4286 4 27.8469 4 23.4286H0ZM3.429 15.0299C1.30991 17.1922 0 20.1594 0 23.4286H4C4 21.248 4.86979 19.2746 6.28585 17.8296L3.429 15.0299ZM2.85742 9.14286V16.4298H6.85742V9.14286H2.85742ZM12.0003 0C6.95714 0 2.85742 4.09972 2.85742 9.14286H6.85742C6.85742 6.30886 9.16628 4 12.0003 4V0ZM21.1431 9.14286C21.1431 4.09972 17.0434 0 12.0003 0V4C14.8343 4 17.1431 6.30886 17.1431 9.14286H21.1431ZM21.1431 16.4303V9.14286H17.1431V16.4303H21.1431ZM9.71456 14.3908V9.85714H5.71456V14.3908H9.71456ZM9.71456 9.85714V9.14286H5.71456V9.85714H9.71456ZM9.71456 9.14286C9.71456 7.88457 10.742 6.85714 12.0003 6.85714V2.85714C8.53285 2.85714 5.71456 5.67543 5.71456 9.14286H9.71456ZM12.0003 6.85714C13.2586 6.85714 14.286 7.88457 14.286 9.14286H18.286C18.286 5.67543 15.4677 2.85714 12.0003 2.85714V6.85714ZM14.286 9.14286V14.3911H18.286V9.14286H14.286ZM17.1442 12.5846C15.5827 11.8427 13.8369 11.4286 12 11.4286V15.4286C13.2307 15.4286 14.3912 15.7051 15.4278 16.1975L17.1442 12.5846ZM12 11.4286C10.1633 11.4286 8.41777 11.8426 6.85644 12.5842L8.57269 16.1973C9.60909 15.705 10.7695 15.4286 12 15.4286V11.4286ZM11.4286 24.4614V26.2857H15.4286V24.4614H11.4286ZM12.8571 22C12.8571 22.2962 12.6979 22.5723 12.421 22.7338L14.4361 26.1891C15.8593 25.3592 16.8571 23.8124 16.8571 22H12.8571ZM12.6061 21.3939C12.7668 21.5547 12.8571 21.7727 12.8571 22H16.8571C16.8571 20.7118 16.3454 19.4764 15.4345 18.5655L12.6061 21.3939ZM12 21.1429C12.2273 21.1429 12.4453 21.2332 12.6061 21.3939L15.4345 18.5655C14.5236 17.6546 13.2882 17.1429 12 17.1429V21.1429ZM11.3939 21.3939C11.5547 21.2332 11.7727 21.1429 12 21.1429V17.1429C10.7118 17.1429 9.47637 17.6546 8.56548 18.5655L11.3939 21.3939ZM11.1429 22C11.1429 21.7727 11.2332 21.5547 11.3939 21.3939L8.56548 18.5655C7.65459 19.4764 7.14286 20.7118 7.14286 22H11.1429ZM11.5768 22.7325C11.3028 22.5732 11.1429 22.2986 11.1429 22H7.14286C7.14286 23.8129 8.14003 25.3611 9.56604 26.1904L11.5768 22.7325ZM12.5714 26.2857V24.4614H8.57143V26.2857H12.5714ZM12 25.7143C12.3156 25.7143 12.5714 25.9701 12.5714 26.2857H8.57143C8.57143 28.1793 10.1065 29.7143 12 29.7143V25.7143ZM11.4286 26.2857C11.4286 25.9701 11.6844 25.7143 12 25.7143V29.7143C13.8935 29.7143 15.4286 28.1793 15.4286 26.2857H11.4286Z" fill="black" mask="url(#path-1-outside-1_1223_55)"/>
</svg>
