<svg viewBox="0 0 53 54" fill="none" xmlns="http://www.w3.org/2000/svg">
<path d="M25.9193 23.6738C23.0863 13.9904 9.52681 24.6503 8.41592 27.5974C7.30503 30.5444 7.82041 43.0335 14.4997 45.7584C21.1789 48.4832 25.4952 46.8978 33.2197 41.1707C40.9443 35.4436 28.5488 17.3795 30.9634 6.78753C32.8951 -1.68601 30.8094 1.19256 29.5251 3.69104C27.885 6.00843 24.8525 12.3095 25.8435 18.9745C26.8344 25.6395 26.3069 24.8844 25.9193 23.6738Z" fill="#F36800"/>
<path d="M18.4431 31.0134C21.8795 31.7946 28.1857 31.4204 25.9193 23.6738M25.9193 23.6738C23.0863 13.9904 9.52681 24.6503 8.41592 27.5974C7.30503 30.5444 7.82041 43.0335 14.4997 45.7584C21.1789 48.4832 25.4952 46.8978 33.2197 41.1707C40.9443 35.4436 28.5488 17.3795 30.9634 6.78753C32.8951 -1.68601 30.8094 1.19256 29.5251 3.69104C27.885 6.00843 24.8525 12.3095 25.8435 18.9745C26.8344 25.6395 26.3069 24.8844 25.9193 23.6738Z" stroke="black" stroke-width="2"/>
<path d="M13.444 22.2989C4.54939 17.5368 2.65694 34.6806 3.98167 37.5379C5.30641 40.3952 14.5795 48.7768 21.2032 45.9195C27.8269 43.0622 29.7194 38.8715 31.0441 29.3471C32.3688 19.8228 10.7946 16.013 4.92791 6.86963C0.234572 -0.445086 0.827518 3.05988 1.71066 5.7267C2.21532 8.52055 4.58722 15.0988 10.0376 19.0609C15.4879 23.023 14.5795 22.8705 13.444 22.2989Z" fill="#F36800"/>
<path d="M13.444 32.7757C16.4089 30.8709 20.5597 26.1087 13.444 22.2989M13.444 22.2989C4.54939 17.5368 2.65694 34.6806 3.98167 37.5379C5.30641 40.3952 14.5795 48.7768 21.2032 45.9195C27.8269 43.0622 29.7194 38.8715 31.0441 29.3471C32.3688 19.8228 10.7946 16.013 4.92791 6.86963C0.234572 -0.445086 0.827519 3.05988 1.71066 5.7267C2.21532 8.52055 4.58722 15.0988 10.0376 19.0609C15.4879 23.023 14.5795 22.8705 13.444 22.2989Z" stroke="black" stroke-width="2"/>
</svg>
