<svg width="57" height="56" viewBox="0 0 57 56" fill="none" xmlns="http://www.w3.org/2000/svg">
<path d="M32.939 32.455C40.4974 25.772 25.0821 18.0349 21.9425 18.2832C18.8028 18.5314 7.71924 24.3104 8.0944 31.5143C8.46957 38.7183 11.7404 41.9501 20.2094 46.5048C28.6784 51.0595 39.7539 32.1572 50.3669 29.837C58.8573 27.9808 55.365 27.3176 52.5575 27.2181C49.7625 26.7195 42.7701 26.6554 37.1596 30.3874C31.5492 34.1194 32.0082 33.3208 32.939 32.455Z" fill="#F36800"/>
<path d="M23.1163 28.8111C23.871 32.2534 26.8922 37.8014 32.939 32.455M32.939 32.455C40.4974 25.772 25.0821 18.0349 21.9425 18.2832C18.8028 18.5314 7.71924 24.3104 8.0944 31.5143C8.46957 38.7183 11.7404 41.9501 20.2094 46.5048C28.6784 51.0595 39.7539 32.1572 50.3669 29.837C58.8573 27.9808 55.365 27.3176 52.5575 27.2181C49.7625 26.7195 42.7701 26.6554 37.1596 30.3874C31.5492 34.1194 32.0082 33.3208 32.939 32.455Z" stroke="black" stroke-width="2"/>
<path d="M31.9448 26.5954C35.1743 17.037 17.9531 17.9988 15.3535 19.7768C12.7539 21.5548 6.01702 32.0836 9.92794 38.1451C13.8389 44.2066 18.2844 45.3818 27.8968 45.1171C37.5092 44.8523 37.7074 22.9452 45.7577 15.6505C52.1979 9.81467 48.8387 10.9777 46.3542 12.2887C43.6819 13.2474 37.5851 16.6721 34.5764 22.7014C31.5678 28.7307 31.5684 27.8096 31.9448 26.5954Z" fill="#F36800"/>
<path d="M21.6115 28.3238C23.9794 30.9338 29.3612 34.2421 31.9448 26.5954M31.9448 26.5954C35.1743 17.037 17.9531 17.9988 15.3535 19.7768C12.7539 21.5548 6.01702 32.0836 9.92794 38.1451C13.8389 44.2066 18.2844 45.3818 27.8968 45.1171C37.5092 44.8523 37.7075 22.9452 45.7577 15.6505C52.1979 9.81467 48.8387 10.9777 46.3542 12.2887C43.6819 13.2474 37.5851 16.6721 34.5764 22.7014C31.5678 28.7307 31.5684 27.8096 31.9448 26.5954Z" stroke="black" stroke-width="2"/>
<path d="M25.9193 24.1388C23.0863 14.4555 9.52681 25.1154 8.41592 28.0625C7.30503 31.0095 7.82041 43.4986 14.4997 46.2234C21.1789 48.9483 25.4952 47.3629 33.2197 41.6358C40.9443 35.9087 28.5488 17.8445 30.9634 7.25262C32.8951 -1.22092 30.8094 1.65765 29.5251 4.15613C27.885 6.47351 24.8525 12.7745 25.8435 19.4396C26.8344 26.1046 26.3069 25.3495 25.9193 24.1388Z" fill="#F36800"/>
<path d="M18.4431 31.4785C21.8795 32.2597 28.1857 31.8855 25.9193 24.1388M25.9193 24.1388C23.0863 14.4555 9.52681 25.1154 8.41592 28.0625C7.30503 31.0095 7.82041 43.4986 14.4997 46.2234C21.1789 48.9483 25.4952 47.3629 33.2197 41.6358C40.9443 35.9087 28.5488 17.8445 30.9634 7.25262C32.8951 -1.22092 30.8094 1.65765 29.5251 4.15613C27.885 6.47351 24.8525 12.7745 25.8435 19.4396C26.8344 26.1046 26.3069 25.3495 25.9193 24.1388Z" stroke="black" stroke-width="2"/>
<path d="M13.444 22.764C4.54939 18.0018 2.65694 35.1457 3.98167 38.003C5.30641 40.8603 14.5795 49.2419 21.2032 46.3846C27.8269 43.5273 29.7194 39.3366 31.0441 29.8122C32.3688 20.2879 10.7946 16.4781 4.92791 7.33472C0.234572 0.0200022 0.827518 3.52497 1.71066 6.19179C2.21532 8.98564 4.58722 15.5639 10.0376 19.526C15.4879 23.4881 14.5795 23.3356 13.444 22.764Z" fill="#F36800"/>
<path d="M13.444 33.2408C16.4089 31.336 20.5597 26.5738 13.444 22.764M13.444 22.764C4.54939 18.0018 2.65694 35.1457 3.98167 38.003C5.30641 40.8603 14.5795 49.2419 21.2032 46.3846C27.8269 43.5273 29.7194 39.3366 31.0441 29.8122C32.3688 20.2879 10.7946 16.4781 4.92791 7.33472C0.234572 0.0200021 0.827519 3.52497 1.71066 6.19179C2.21532 8.98564 4.58722 15.5639 10.0376 19.526C15.4879 23.4881 14.5795 23.3356 13.444 22.764Z" stroke="black" stroke-width="2"/>
</svg>
