<svg width="74" height="74" viewBox="0 0 74 74" fill="none" xmlns="http://www.w3.org/2000/svg">
<rect x="1.25153" y="1.25153" width="71.4969" height="71.4969" rx="3.74233" fill="#8F2D14" stroke="black" stroke-width="1.49693"/>
<rect x="2.37423" y="2.37423" width="69.2515" height="69.2515" rx="2.61963" fill="#8F2D14" stroke="#B33F1C" stroke-width="0.748466"/>
<rect x="6" y="6" width="62" height="62" fill="black"/>
<path d="M24.8254 18.6632L21.6751 15.5128L21.5983 19.9674L21.4206 30.2749L19.1864 37.8608L18.8693 38.9378L19.6632 39.7317L35.265 55.3335L36.6018 56.6704L37.9386 55.3335L53.5404 39.7317L54.3343 38.9378L54.0172 37.8608L51.783 30.2749L51.6053 19.9674L51.5285 15.5129L48.3782 18.6632L38.3685 28.6728H34.8351L24.8254 18.6632Z" fill="#3993E7" stroke="#F36800" stroke-width="3.78114"/>
<path d="M24.2842 19.2044L22.4092 17.3294L22.3635 19.9806L22.184 30.3917L19.9206 38.077L19.7318 38.718L20.2044 39.1905L35.8062 54.7923L36.6018 55.588L37.3974 54.7923L52.9992 39.1905L53.4717 38.718L53.283 38.077L51.0196 30.3917L50.84 19.9806L50.7943 17.3294L48.9194 19.2044L38.6855 29.4382H34.5181L24.2842 19.2044ZM43.2593 38.0096L45.2359 36.1319L45.4438 38.2104L42.6256 38.5459L43.2091 38.0546L43.2349 38.0328L43.2593 38.0096ZM29.6889 38.0096L29.7133 38.0328L29.7391 38.0546L30.3226 38.5459L27.5044 38.2104L27.7123 36.1319L29.6889 38.0096Z" fill="#3993E7" stroke="black" stroke-width="2.25041"/>
</svg>
