<svg width="current" height="current" viewBox="0 0 20 19" fill="none" xmlns="http://www.w3.org/2000/svg">
<path d="M9.87207 0C4.62617 0 0.37207 4.2541 0.37207 9.5C0.37207 14.7459 4.62617 19 9.87207 19C15.118 19 19.3721 14.7459 19.3721 9.5C19.3721 4.2541 15.1199 0 9.87207 0ZM5.05937 9.8192L5.09927 9.7546L7.57117 5.8881C7.60727 5.833 7.69277 5.8387 7.71937 5.8995C8.13167 6.8248 8.48887 7.9762 8.32167 8.6925C8.25137 8.987 8.05567 9.386 7.83527 9.7546C7.80678 9.80863 7.77571 9.86126 7.74217 9.9123C7.73432 9.92363 7.7238 9.93286 7.71154 9.93916C7.69928 9.94545 7.68565 9.94863 7.67187 9.9484H5.13157C5.11639 9.94865 5.10143 9.94478 5.08828 9.9372C5.07512 9.92963 5.06426 9.91863 5.05686 9.90538C5.04945 9.89213 5.04578 9.87712 5.04622 9.86194C5.04666 9.84677 5.05121 9.832 5.05937 9.8192ZM16.0737 11.1492C16.0739 11.1661 16.0691 11.1826 16.06 11.1968C16.0509 11.211 16.0378 11.2222 16.0224 11.229C15.8305 11.3107 15.175 11.6128 14.9033 11.9909C14.2079 12.958 13.6778 14.3412 12.4903 14.3412H7.53887C5.78327 14.3412 4.36207 12.9143 4.36207 11.153V11.096C4.36207 11.0504 4.40007 11.0124 4.44757 11.0124H7.20637C7.26147 11.0124 7.30137 11.0618 7.29757 11.1169C7.27732 11.2995 7.31171 11.484 7.39637 11.647C7.47664 11.8092 7.60068 11.9456 7.75446 12.041C7.90824 12.1364 8.08563 12.1868 8.26657 12.1866H9.63267V11.1207H8.28177C8.26601 11.1204 8.25063 11.1158 8.23726 11.1074C8.22389 11.0991 8.21303 11.0873 8.20582 11.0733C8.19862 11.0592 8.19534 11.0435 8.19633 11.0278C8.19733 11.0121 8.20256 10.9969 8.21147 10.9839C8.22667 10.9611 8.24187 10.9383 8.26087 10.9117C8.43643 10.6575 8.60062 10.3957 8.75297 10.127C8.87991 9.90731 8.99349 9.68017 9.09307 9.4468C9.11207 9.405 9.12727 9.3613 9.14437 9.3195C9.17097 9.2454 9.19757 9.1751 9.21657 9.1067C9.23557 9.0478 9.25267 8.987 9.26787 8.93C9.31347 8.7324 9.33247 8.5234 9.33247 8.3068C9.33247 8.2213 9.32867 8.132 9.32107 8.0484C9.31727 7.9553 9.30587 7.8622 9.29447 7.7691C9.28687 7.6874 9.27167 7.6057 9.25647 7.5221C9.23506 7.39769 9.20908 7.2741 9.17857 7.1516L9.16717 7.1041C9.14437 7.0186 9.12347 6.9388 9.09687 6.8533C9.02128 6.59315 8.93443 6.33641 8.83657 6.0838C8.80237 5.9869 8.76437 5.8938 8.72447 5.8026C8.66747 5.662 8.60857 5.5347 8.55537 5.415C8.52909 5.36383 8.50438 5.31188 8.48127 5.2592C8.45518 5.20229 8.42794 5.14591 8.39957 5.0901C8.38057 5.0483 8.35777 5.0084 8.34257 4.9704L8.17537 4.6626C8.15257 4.6208 8.19057 4.5695 8.23617 4.5828L9.28117 4.8659H9.28877L9.42557 4.9058L9.57757 4.9476L9.63267 4.9628V4.3434C9.63267 4.0432 9.87207 3.8 10.1704 3.8C10.3186 3.8 10.4535 3.8608 10.5485 3.9596C10.6454 4.0584 10.7062 4.1933 10.7062 4.3434V5.2649L10.8183 5.2953C10.8259 5.2991 10.8354 5.3029 10.843 5.3086C10.8696 5.3276 10.9095 5.358 10.9589 5.396C10.9988 5.4264 11.0406 5.4644 11.09 5.5043C11.1907 5.586 11.3123 5.6905 11.4434 5.8102C11.4776 5.8406 11.5118 5.871 11.5441 5.9033C11.7132 6.061 11.9032 6.2453 12.0856 6.4505C12.1369 6.5094 12.1863 6.5664 12.2376 6.6291C12.287 6.6918 12.3421 6.7526 12.3877 6.8134C12.4504 6.8951 12.515 6.9806 12.5739 7.0699C12.6005 7.1117 12.6328 7.1554 12.6575 7.1972C12.7335 7.3093 12.7981 7.4252 12.8608 7.5411C12.8874 7.5943 12.914 7.6532 12.9368 7.7102C13.0071 7.866 13.0622 8.0237 13.0964 8.1833C13.1078 8.2175 13.1154 8.2536 13.1192 8.2878V8.2954C13.1306 8.341 13.1344 8.3904 13.1382 8.4417C13.1539 8.60488 13.145 8.7695 13.1116 8.93C13.0964 8.9984 13.0774 9.063 13.0546 9.1333C13.0299 9.1998 13.0071 9.2682 12.9767 9.3347C12.918 9.47257 12.8481 9.60539 12.7677 9.7318C12.7411 9.7793 12.7088 9.8287 12.6784 9.8762C12.6442 9.9256 12.6081 9.9731 12.5777 10.0187C12.534 10.0776 12.4884 10.1384 12.4409 10.1935C12.3991 10.2505 12.3573 10.3075 12.3098 10.3588C12.2452 10.4367 12.1825 10.5089 12.116 10.5792C12.078 10.6248 12.0362 10.6723 11.9925 10.7141C11.9507 10.7616 11.907 10.8034 11.869 10.8414C11.8025 10.9079 11.7493 10.9573 11.7037 11.001L11.5954 11.0979C11.5801 11.1127 11.5596 11.1209 11.5384 11.1207H10.7062V12.1866H11.7531C11.9868 12.1866 12.2091 12.1049 12.3896 11.951C12.4504 11.8978 12.7183 11.666 13.0356 11.3164C13.0459 11.3041 13.0599 11.2954 13.0755 11.2917L15.9654 10.4557C15.978 10.452 15.9914 10.4513 16.0043 10.4536C16.0173 10.456 16.0296 10.4613 16.0401 10.4693C16.0506 10.4772 16.0591 10.4875 16.065 10.4994C16.0708 10.5112 16.0738 10.5242 16.0737 10.5374V11.1492Z" fill="current"/>
</svg>
